<svg width="239" height="213" viewBox="0 0 239 213" fill="none" xmlns="http://www.w3.org/2000/svg">
<path d="M155.016 178.211C156.433 177.939 157.775 177.499 159.04 176.89C159.898 176.479 160.332 175.79 160.342 174.825C160.379 170.734 159.426 164.497 164.841 163.198C166.406 162.824 168.1 163.219 169.557 162.614C172.01 161.596 172.723 157.89 170.171 156.486C169.661 156.206 168.8 156.066 167.588 156.066C133.674 156.062 99.7591 156.09 65.8446 156.149C65.4969 156.151 65.1966 156.149 64.9435 156.143C64.8389 156.141 64.737 156.176 64.6565 156.241C64.576 156.307 64.5223 156.399 64.5053 156.501C64.244 158.011 64.5208 159.297 65.3354 160.359C66.4958 161.868 67.8011 162.935 69.7792 162.994C71.0403 163.031 72.3025 163.055 73.5656 163.065C76.7071 163.096 77.5187 164.071 79.4783 166.228C79.5462 166.304 79.6378 166.354 79.7375 166.37C80.1922 166.442 80.7302 166.478 81.3515 166.478C85.2603 166.48 89.1692 166.457 93.078 166.41C93.2488 166.408 93.4051 166.378 93.5471 166.321" stroke="#537795" stroke-width="2"/>
<path d="M113.8 169.302C113.905 171.291 113.273 172.634 111.905 173.329C111.239 173.668 109.975 173.843 108.113 173.854C103.124 173.876 98.1215 173.857 93.1058 173.795C93.078 173.794 93.0505 173.802 93.0266 173.816C93.0026 173.83 92.983 173.85 92.9699 173.875C92.9568 173.9 92.9508 173.927 92.9524 173.955C92.9541 173.983 92.9634 174.01 92.9793 174.033C94.0408 175.585 95.9788 176.609 97.6514 177.402C103.922 180.371 110.525 182.102 117.46 182.596C124.246 183.077 131.523 182.827 138.256 182.346C139.599 182.25 140.796 182.331 142.083 182.454" stroke="#537795" stroke-width="2"/>
<path d="M143.903 174.048C143.395 173.894 142.732 173.817 141.913 173.819C137.867 173.829 133.76 174.014 129.724 173.81C127.684 173.705 126.607 172.357 126.52 170.394C126.504 169.981 126.482 169.55 126.456 169.101" stroke="#537795" stroke-width="2"/>
<path d="M92.5534 35.2209C92.144 35.3135 91.8858 35.3824 91.7788 35.4277C64.9466 47.0555 46.9093 71.4375 44.7954 100.757C44.6288 103.076 44.5753 105.137 44.6349 106.941" stroke="#909FAC" stroke-width="2"/>
<path d="M44.6348 106.941C44.5957 108.41 44.6677 110.205 44.8508 112.326C45.9587 125.13 49.9396 137.862 57.1668 148.441C57.2306 148.533 57.3191 148.58 57.4322 148.58L90.3036 148.549C90.6863 148.547 90.7542 148.401 90.5073 148.111C87.158 144.196 83.9692 140.595 80.9409 137.31C80.5305 136.862 80.4379 136.594 80.4317 136.011C80.3113 125.407 80.3731 115.801 80.4008 105.704" stroke="#7291A7" stroke-width="2"/>
<path d="M80.4009 105.704C80.1571 103.087 80.4934 102.562 82.3543 101.229C86.9955 97.9024 91.5894 94.5233 96.1361 91.0918C96.1517 91.0798 96.1644 91.0643 96.1732 91.0467C96.1819 91.0291 96.1865 91.0097 96.1865 90.9902C96.1865 90.9707 96.1819 90.9516 96.1732 90.9344C96.1644 90.9172 96.1517 90.9024 96.1361 90.8912C90.4908 86.8116 87.8925 81.2229 88.341 74.1253C88.3451 74.0718 88.3204 74.0512 88.2669 74.0636L85.8383 74.5913C85.7889 74.6015 85.7642 74.6314 85.7642 74.6808L85.7303 81.297C85.7303 81.4731 85.7889 81.6445 85.8969 81.7846C87.0387 83.2514 87.4728 84.887 87.1992 86.6912C86.5048 91.2584 80.5768 91.7954 80.0398 87.0183C79.8732 85.5217 79.8639 83.2627 81.2649 82.0963C81.3691 82.0103 81.4528 81.902 81.5099 81.7792C81.5671 81.6564 81.5962 81.5223 81.5951 81.3865L81.5735 76.0787C81.5735 75.8709 81.4717 75.7917 81.268 75.8411C78.9536 76.412 77.0156 75.8812 76.562 73.3661C76.1978 71.3418 77.4384 69.6568 79.3455 69.0643C82.6968 68.0234 86.5511 66.9289 90.9085 65.7809C91.0113 65.7542 91.0977 65.7017 91.1677 65.6235C91.7602 64.9662 92.3866 64.1454 92.9082 63.6177C100.5 55.9368 112.896 56.8348 119.327 65.5587C126.823 75.7269 121.327 90.0333 109.267 93.0915C108.586 93.2643 107.886 93.3589 107.168 93.3754C107.024 93.3795 106.999 93.4361 107.091 93.5451C107.344 93.8516 107.626 94.1304 107.937 94.3814C111.025 96.881 114.141 99.3436 117.287 101.769C118.722 102.877 119.892 104.028 119.898 105.614C119.912 109.009 119.915 112.377 119.907 115.718C119.907 115.747 119.913 115.776 119.926 115.802C119.938 115.829 119.957 115.852 119.98 115.87C120.003 115.888 120.031 115.901 120.06 115.907C120.089 115.913 120.119 115.913 120.148 115.906C127.495 114.014 134.902 112.329 142.181 110.314C144.172 109.765 146.495 108.922 147.69 109.786C149.066 110.78 148.535 111.866 147.85 113.027C144.021 119.476 140.407 126.031 136.562 132.49" stroke="#909FAC" stroke-width="2"/>
<path d="M136.562 132.49C134.379 136.316 132.834 138.919 131.927 140.297C131.036 141.653 129.714 142.179 127.961 141.874" stroke="#7291A7" stroke-width="2"/>
<path d="M127.961 141.874C125.4 140.627 125.425 138.418 126.69 136.23C128.897 132.413 130.853 128.873 133.254 124.747C134.257 123.025 135.337 121.34 136.155 119.516C136.164 119.495 136.166 119.472 136.163 119.449C136.16 119.426 136.15 119.405 136.136 119.387C136.121 119.37 136.102 119.356 136.08 119.348C136.059 119.341 136.035 119.339 136.013 119.344C133.085 120.037 130.163 120.729 127.246 121.42C122.506 122.544 117.25 124.114 112.754 125.127C111.575 125.392 110.125 125.49 108.403 125.42" stroke="#537795" stroke-width="2"/>
<path d="M108.403 125.42C106.996 125.115 106.077 124.899 105.647 124.772C101.707 123.595 98.8075 121.242 96.9477 117.714C96.3028 116.492 95.9201 114.727 95.414 113.631C94.0685 110.709 90.8931 108.836 87.8967 107.666C87.8041 107.631 87.7578 107.663 87.7578 107.762L87.7485 129.382C87.7485 129.412 87.7545 129.442 87.7661 129.469C87.7777 129.497 87.7946 129.522 87.816 129.543C87.8373 129.563 87.8626 129.579 87.8902 129.59C87.9179 129.601 87.9474 129.605 87.9769 129.604C92.6274 129.438 97.2656 130.107 101.543 131.903C102.606 132.35 103.674 132.802 104.746 133.261" stroke="#3A5D7C" stroke-width="2"/>
<path d="M104.746 133.261C109.289 135.697 113.169 138.591 116.386 141.942C117.46 143.059 118.211 143.812 118.639 144.201" stroke="#537795" stroke-width="2"/>
<path d="M118.639 144.201L122.052 148.317C122.115 148.394 122.195 148.455 122.285 148.497C122.375 148.539 122.474 148.561 122.573 148.561L164.348 148.546" stroke="#7291A7" stroke-width="2"/>
<path d="M164.348 148.546L172.698 148.518" stroke="#8C454C" stroke-width="2"/>
<path d="M172.698 148.518L184.379 148.592C184.487 148.592 184.595 148.565 184.691 148.513C184.786 148.462 184.868 148.387 184.928 148.296C192.164 137.174 196.534 124.244 197.164 110.956C197.204 110.098 197.447 109.678 196.451 109.302C194.969 108.742 193.483 108.228 191.992 107.759" stroke="#7E424B" stroke-width="2"/>
<path d="M191.992 107.759L168.326 99.9854" stroke="#8C454C" stroke-width="2"/>
<path d="M168.326 99.9855L154.103 95.0295C154.065 95.0165 154.025 95.0111 153.985 95.0137C153.946 95.0164 153.907 95.0269 153.871 95.0447C153.835 95.0625 153.804 95.0873 153.778 95.1175C153.752 95.1478 153.732 95.1829 153.72 95.2208C153.426 96.1384 152.952 96.9891 152.297 97.7729C150.658 99.7335 148.65 100.199 146.274 99.1708C144.262 98.2985 142.251 97.4242 140.241 96.5478C138.195 95.6559 136.698 94.1284 136.784 91.8726C136.811 91.134 137.146 90.1218 137.79 88.836C138.712 86.9906 139.65 85.1535 140.605 83.3245C141.475 81.6561 142.23 80.5739 142.87 80.0781C145.394 78.1186 149.11 80.1213 152.171 81.4544C154.988 82.6796 157.158 84.4077 156.377 87.7806C156.364 87.8366 156.373 87.8952 156.4 87.9452C156.427 87.9953 156.472 88.0333 156.525 88.0522L168.036 92.067" stroke="#909FAC" stroke-width="2"/>
<path d="M168.035 92.0669L184.437 97.5012" stroke="#8C454C" stroke-width="2"/>
<path d="M184.437 97.5012L196.839 101.67C196.875 101.683 196.913 101.686 196.95 101.679C196.987 101.673 197.021 101.657 197.051 101.634C197.08 101.61 197.103 101.58 197.117 101.545C197.131 101.511 197.137 101.473 197.133 101.436L196.657 96.8933" stroke="#7E424B" stroke-width="2"/>
<path d="M196.657 96.8933C194.806 81.6457 188.294 66.8733 177.744 55.6528" stroke="#8C454C" stroke-width="2"/>
<path d="M177.744 55.6528L174.004 52.067C173.98 52.0448 173.952 52.028 173.921 52.0176C173.891 52.0072 173.858 52.0035 173.826 52.0067C173.793 52.0099 173.762 52.02 173.733 52.0362C173.705 52.0525 173.68 52.0745 173.661 52.1009L159.941 71.3294" stroke="#7E424B" stroke-width="2"/>
<path d="M159.941 71.3293C158.932 72.8199 158.025 74.9708 156.262 75.6836C153.427 76.8316 151.282 74.5171 151.291 71.8077" stroke="#909FAC" stroke-width="2"/>
<path d="M151.291 71.8077L168.122 47.5122C168.183 47.4243 168.214 47.319 168.211 47.2115C168.209 47.1039 168.172 46.9996 168.106 46.9135C167.975 46.7427 167.796 46.5689 167.569 46.392C151.634 33.9556 131.421 27.6079 111.208 30.4099C104.925 31.2801 98.8064 32.8087 92.8526 34.9956C92.7806 35.0223 92.726 35.0697 92.689 35.1375C92.6581 35.1951 92.6129 35.2229 92.5532 35.2209" stroke="#8C454C" stroke-width="2"/>
<path d="M151.291 71.8078C149.898 69.0984 148.879 67.2787 148.233 66.3488C139.379 53.6224 124.78 46.1421 109.202 46.858C106.034 47.0041 102.893 47.3888 99.7805 48.0122C96.6236 48.6417 93.6086 46.4538 94.1301 43.1148C94.3894 41.4545 95.6361 40.2387 95.4108 38.4674C95.2164 36.909 93.9913 35.7641 92.5532 35.2209" stroke="#FBA5A0" stroke-width="2"/>
<path d="M159.941 71.3293L162.962 76.5477" stroke="#EDA29E" stroke-width="2"/>
<path d="M162.962 76.5479C165.594 81.6273 166.934 86.4815 168.035 92.067" stroke="#FBA5A0" stroke-width="2"/>
<path d="M168.326 99.9854C168.268 100.09 168.241 100.192 168.245 100.291C168.458 105.395 167.465 111.018 166.101 115.927C165.979 116.365 165.892 116.682 165.838 116.878" stroke="#FBA5A0" stroke-width="2"/>
<path d="M165.838 116.878C162.808 116.808 158.819 116.817 153.871 116.906C152.436 116.933 152.127 117.193 151.47 118.424C149.213 122.643 146.182 126.172 142.376 129.009C140.956 130.07 138.54 130.743 137.364 132.067C137.099 132.363 136.832 132.504 136.562 132.49" stroke="#E1F2FB" stroke-width="2"/>
<path d="M80.4008 105.704L80.3576 106.537C80.3535 106.631 80.3051 106.689 80.2125 106.71C79.7003 106.83 79.2806 106.926 78.7529 106.929C68.1167 107.017 57.4795 107.015 46.8412 106.923C46.8165 106.923 46.475 106.903 45.8167 106.864C45.4011 106.841 45.0071 106.867 44.6348 106.941" stroke="#E1F2FB" stroke-width="2"/>
<path d="M191.992 107.759C191.597 107.703 191.24 107.723 190.921 107.817C190.818 107.848 190.763 107.917 190.757 108.024C190.562 110.861 190.371 112.731 190.186 113.634C189.46 117.21 188.599 120.753 187.603 124.262C187.048 126.219 186.215 128.117 185.455 130.042C182.811 136.767 178.784 142.065 173.726 147.04C173.551 147.21 173.391 147.457 173.244 147.78C173.1 148.091 172.918 148.337 172.698 148.518" stroke="#E8483F" stroke-width="2"/>
<path d="M164.348 148.546C165.604 145.602 164.076 143.269 161.685 141.849C160.53 141.164 159.179 140.436 158.272 139.578C155.755 137.198 155.659 134.524 157.981 131.558C161.656 126.861 164.275 121.968 165.838 116.878" stroke="#DD989B" stroke-width="2"/>
<path d="M196.657 96.8933C196.509 97.2348 196.315 97.3212 196.074 97.1525C193.745 95.5272 191.147 94.7496 188.279 94.8195C186.739 94.8565 185.134 96.273 184.437 97.5012" stroke="#E8483F" stroke-width="2"/>
<path d="M177.744 55.6528C177.624 55.7989 177.575 56.0046 177.595 56.27C177.603 56.3757 177.574 56.4807 177.512 56.5663C175.426 59.3827 173.371 62.2207 171.346 65.0804C169.569 67.5892 167.261 70.4838 165.341 73.2797C164.789 74.079 163.357 75.2825 163.459 76.2237C163.469 76.3224 163.431 76.3975 163.345 76.449C163.244 76.5107 163.116 76.5436 162.962 76.5477" stroke="#E8483F" stroke-width="2"/>
<path d="M118.639 144.201C121.906 143.668 125.013 142.892 127.961 141.874" stroke="#A4CAE4" stroke-width="2"/>
<path d="M108.403 125.42L104.746 133.261" stroke="#6C96B9" stroke-width="2"/>
<path d="M95.9695 73.1254C95.947 73.1281 95.9261 73.1385 95.9104 73.1548C95.8947 73.1711 95.885 73.1923 95.8831 73.2149C95.63 76.6927 95.9232 80.007 98.4073 82.6208C104.545 89.0766 115.608 85.034 115.213 75.767C115.062 72.286 112.924 69.2001 109.992 67.4504C109.949 67.4257 109.911 67.4318 109.878 67.4689C106.215 71.6719 101.28 72.5483 95.9695 73.1254Z" stroke="#909FAC" stroke-width="2"/>
<path d="M149.603 89.595C149.603 88.9386 149.342 88.3091 148.878 87.845C148.414 87.3809 147.785 87.1201 147.128 87.1201C146.472 87.1201 145.842 87.3809 145.378 87.845C144.914 88.3091 144.653 88.9386 144.653 89.595C144.653 90.2514 144.914 90.8809 145.378 91.3451C145.842 91.8092 146.472 92.07 147.128 92.07C147.785 92.07 148.414 91.8092 148.878 91.3451C149.342 90.8809 149.603 90.2514 149.603 89.595Z" stroke="#537795" stroke-width="2"/>
<path d="M102.613 111.292C103.206 112.761 103.471 114.711 104.715 115.742C106.813 117.486 109.615 118.51 112.476 118.023C112.511 118.017 112.542 117.999 112.564 117.972C112.586 117.945 112.598 117.912 112.596 117.878L112.547 108.37C112.546 108.177 112.501 107.986 112.416 107.812C112.331 107.639 112.208 107.486 112.056 107.367L99.7311 97.6925C99.6324 97.6123 99.5326 97.6113 99.4318 97.6895L93.4605 102.207C93.4345 102.227 93.414 102.253 93.4009 102.283C93.3878 102.313 93.3825 102.345 93.3856 102.378C93.3887 102.41 93.4001 102.441 93.4186 102.468C93.4371 102.495 93.4621 102.517 93.4914 102.531C97.6204 104.599 100.824 106.858 102.613 111.292Z" stroke="#8C454C" stroke-width="2"/>
<path d="M124.064 41.0564C124.064 40.4066 123.806 39.7834 123.346 39.3239C122.887 38.8644 122.264 38.6062 121.614 38.6062C121.292 38.6062 120.973 38.6696 120.676 38.7927C120.379 38.9159 120.109 39.0963 119.881 39.3239C119.654 39.5514 119.473 39.8215 119.35 40.1188C119.227 40.4161 119.164 40.7347 119.164 41.0564C119.164 41.3782 119.227 41.6968 119.35 41.9941C119.473 42.2914 119.654 42.5615 119.881 42.789C120.109 43.0165 120.379 43.197 120.676 43.3202C120.973 43.4433 121.292 43.5067 121.614 43.5067C122.264 43.5067 122.887 43.2485 123.346 42.789C123.806 42.3295 124.064 41.7063 124.064 41.0564Z" stroke="#E8483F" stroke-width="2"/>
<path d="M143.648 48.5983C143.808 48.3012 143.905 47.9746 143.935 47.6373C143.965 47.3 143.927 46.9585 143.824 46.6323C143.72 46.3061 143.552 46.0017 143.33 45.7364C143.109 45.471 142.837 45.25 142.531 45.0859C141.913 44.7544 141.192 44.6749 140.527 44.8649C139.863 45.0549 139.309 45.4987 138.987 46.0989C138.827 46.396 138.73 46.7226 138.7 47.0599C138.67 47.3972 138.708 47.7387 138.812 48.0649C138.915 48.3911 139.083 48.6955 139.305 48.9608C139.527 49.2262 139.798 49.4472 140.104 49.6113C140.722 49.9428 141.443 50.0223 142.108 49.8323C142.772 49.6423 143.327 49.1985 143.648 48.5983Z" stroke="#E8483F" stroke-width="2"/>
<path d="M88.6283 51.0085C89.2948 49.5797 88.906 47.9874 87.6685 46.9999C86.43 46.0165 84.9899 45.9579 83.3482 46.824C82.513 47.2663 81.0451 48.2445 78.9446 49.7587C70.3719 55.9429 63.2032 64.6422 59.3427 74.5326C58.312 77.1762 57.413 80.0215 56.6456 83.0683C56.1868 84.8911 56.5829 86.326 57.8337 87.3732C59.1884 88.5088 61.1696 88.1632 62.3484 87.0276C63.1292 86.2746 63.5242 85.0865 63.7772 84.0126C66.715 71.4991 74.4885 60.8866 85.2708 53.9864C86.6872 53.0792 87.8784 52.6194 88.6283 51.0085Z" stroke="#909FAC" stroke-width="2"/>
<path d="M60.4107 94.9655C60.0705 94.6613 59.672 94.4292 59.2378 94.2823C58.8036 94.1354 58.3423 94.0767 57.8802 94.1094C57.4181 94.1421 56.9643 94.2657 56.5446 94.4731C56.1249 94.6804 55.7477 94.9676 55.4343 95.318C55.121 95.6684 54.8778 96.0754 54.7184 96.5155C54.5591 96.9557 54.4869 97.4205 54.5059 97.8833C54.5249 98.3462 54.6347 98.7981 54.8291 99.2132C55.0234 99.6283 55.2986 99.9985 55.6387 100.303C55.9789 100.607 56.3774 100.839 56.8116 100.986C57.2458 101.133 57.7071 101.191 58.1692 101.159C58.6313 101.126 59.0852 101.002 59.5048 100.795C59.9245 100.588 60.3017 100.301 60.6151 99.9501C60.9284 99.5997 61.1717 99.1928 61.331 98.7526C61.4903 98.3124 61.5625 97.8477 61.5435 97.3848C61.5245 96.9219 61.4147 96.47 61.2204 96.0549C61.026 95.6398 60.7509 95.2696 60.4107 94.9655Z" stroke="#E1F2FB" stroke-width="2"/>
<path d="M178.539 74.45C178.233 73.6182 177.609 72.942 176.804 72.5702C176 72.1984 175.08 72.1615 174.248 72.4675L173.97 72.5698C173.558 72.7214 173.18 72.9526 172.858 73.2502C172.535 73.5478 172.275 73.9061 172.09 74.3045C171.906 74.7029 171.803 75.1337 171.785 75.5722C171.767 76.0108 171.836 76.4485 171.988 76.8603L174.752 84.3729C175.058 85.2048 175.682 85.881 176.487 86.2527C177.291 86.6245 178.211 86.6615 179.042 86.3554L179.32 86.2531C179.732 86.1016 180.11 85.8704 180.433 85.5727C180.755 85.2751 181.016 84.9168 181.2 84.5184C181.384 84.12 181.488 83.6893 181.506 83.2507C181.523 82.8122 181.454 82.3745 181.303 81.9626L178.539 74.45Z" stroke="#8C454C" stroke-width="2"/>
<path d="M179.922 122.772C180.546 121.241 181.37 119.041 180.626 117.477C179.595 115.304 176.438 114.604 174.855 116.69C174.466 117.2 174.199 117.671 174.053 118.103C172.823 121.74 171.543 124.75 170.214 127.132C168.914 129.467 167.404 131.656 165.684 133.699C162.906 137.001 167.038 141.46 170.208 138.844C170.955 138.228 171.62 137.534 172.204 136.761C174.379 133.882 176.275 130.836 177.892 127.62C178.638 126.133 179.259 124.395 179.922 122.772Z" stroke="#8C454C" stroke-width="2"/>
<path d="M60.2653 124.796C58.7254 125.858 59.5741 128.12 60.3733 129.299C60.6233 129.663 61.3423 130.249 61.4472 130.687C61.8823 132.551 62.8359 135.14 65.3108 134.033C67.4926 133.061 66.2582 130.502 65.1874 129.185C64.5486 128.398 64.3079 126.827 63.7709 125.685C63.0982 124.253 61.5213 123.929 60.2653 124.796Z" stroke="#A4CAE4" stroke-width="2"/>
<path d="M155.016 178.211C156.434 177.939 157.775 177.499 159.04 176.89C159.898 176.479 160.332 175.791 160.342 174.826C160.379 170.734 159.426 164.497 164.842 163.198C166.406 162.825 168.101 163.22 169.557 162.615C172.01 161.596 172.723 157.89 170.171 156.486C169.661 156.206 168.8 156.066 167.588 156.066C133.674 156.062 99.7593 156.09 65.8449 156.15C65.4972 156.152 65.1968 156.15 64.9438 156.143C64.8391 156.141 64.7373 156.176 64.6568 156.242C64.5763 156.307 64.5226 156.4 64.5056 156.501C64.2443 158.012 64.521 159.297 65.3357 160.359C66.496 161.868 67.8014 162.936 69.7794 162.994C71.0406 163.031 72.3027 163.055 73.5659 163.065C76.7074 163.096 77.519 164.071 79.4785 166.228C79.5465 166.304 79.638 166.354 79.7378 166.37C80.1924 166.442 80.7304 166.478 81.3517 166.478C85.2606 166.48 89.1694 166.458 93.0783 166.41C93.249 166.408 93.4054 166.378 93.5473 166.321C93.8621 166.434 94.1944 166.493 94.5441 166.497C99.3808 166.542 104.217 166.551 109.054 166.525C110.474 166.518 111.554 166.67 112.538 167.54C113.079 168.019 113.5 168.607 113.8 169.302C113.905 171.291 113.274 172.634 111.906 173.329C111.239 173.669 109.975 173.843 108.113 173.854C103.124 173.876 98.1217 173.857 93.106 173.795C93.0782 173.795 93.0508 173.802 93.0268 173.816C93.0028 173.83 92.9832 173.851 92.9701 173.875C92.9571 173.9 92.951 173.927 92.9527 173.955C92.9543 173.983 92.9636 174.01 92.9795 174.033C94.0411 175.585 95.9791 176.609 97.6516 177.402C103.922 180.371 110.525 182.102 117.46 182.596C124.246 183.078 131.523 182.828 138.256 182.346C139.599 182.251 140.796 182.331 142.083 182.454C142.585 183.598 143.095 184.576 143.614 185.389C144.33 186.509 145.656 186.555 146.607 187.031C149.628 188.549 148.909 192.653 145.894 193.625C142.454 194.732 138.507 195.611 134.053 196.261C112.878 199.356 91.1866 194.659 73.1123 183.195C69.6653 181.01 66.3386 178.779 63.2095 176.143C54.6182 168.907 47.1379 160.044 41.7807 150.166C36.0964 139.692 32.4746 128.516 30.9152 116.637C30.8617 116.228 30.7958 115.479 30.7177 114.391C30.6467 113.382 30.4646 112.36 30.443 111.391C30.3227 106.29 30.2517 101.18 30.9522 95.9831C31.4994 91.9056 32.1752 88.2745 32.9796 85.0898C41.1142 52.9127 65.6937 27.284 97.8615 18.6588C104.336 16.9214 111.751 15.6963 118.692 15.5698C168.742 14.6718 210.048 54.6439 211.424 104.38C211.501 107.219 211.328 110.339 211.208 113.329C211.085 116.382 210.527 120.209 209.535 124.809C203.777 151.539 187.165 173.817 163.114 186.892C160.015 188.577 156.686 188.7 154.155 185.951C152.625 184.29 152.254 181.343 153.884 179.612C154.396 179.069 154.773 178.602 155.016 178.211ZM92.5537 35.221C92.1443 35.3136 91.8861 35.3825 91.7791 35.4278C64.9469 47.0556 46.9096 71.4376 44.7957 100.757C44.6291 103.076 44.5756 105.137 44.6352 106.941C44.5961 108.41 44.6681 110.205 44.8512 112.326C45.9591 125.13 49.94 137.862 57.1672 148.441C57.231 148.534 57.3195 148.58 57.4326 148.58L90.304 148.549C90.6867 148.547 90.7546 148.401 90.5077 148.111C87.1584 144.196 83.9696 140.595 80.9413 137.31C80.5309 136.863 80.4383 136.594 80.4321 136.011C80.3118 125.408 80.3735 115.801 80.4012 105.704C80.1575 103.087 80.4938 102.562 82.3546 101.229C86.9959 97.9026 91.5898 94.5235 96.1364 91.0919C96.1521 91.0799 96.1648 91.0645 96.1735 91.0468C96.1823 91.0292 96.1869 91.0099 96.1869 90.9904C96.1869 90.9709 96.1823 90.9518 96.1735 90.9346C96.1648 90.9174 96.1521 90.9026 96.1364 90.8913C90.4912 86.8117 87.8929 81.2231 88.3414 74.1254C88.3455 74.0719 88.3208 74.0514 88.2673 74.0637L85.8387 74.5914C85.7893 74.6017 85.7646 74.6315 85.7646 74.6809L85.7307 81.2972C85.7307 81.4732 85.7893 81.6446 85.8973 81.7847C87.0391 83.2516 87.4732 84.8871 87.1996 86.6914C86.5052 91.2586 80.5771 91.7955 80.0402 87.0185C79.8736 85.5218 79.8643 83.2629 81.2653 82.0964C81.3695 82.0105 81.4532 81.9022 81.5103 81.7794C81.5675 81.6566 81.5966 81.5224 81.5955 81.3866L81.5739 76.0788C81.5739 75.8711 81.4721 75.7918 81.2684 75.8412C78.9539 76.4121 77.016 75.8813 76.5623 73.3663C76.1982 71.3419 77.4387 69.657 79.3459 69.0645C82.6972 68.0235 86.5515 66.929 90.9089 65.7811C91.0117 65.7543 91.0981 65.7019 91.1681 65.6237C91.7606 64.9664 92.387 64.1455 92.9086 63.6178C100.5 55.9369 112.896 56.8349 119.327 65.5589C126.823 75.727 121.327 90.0334 109.267 93.0916C108.586 93.2644 107.887 93.3591 107.169 93.3755C107.025 93.3796 106.999 93.4362 107.092 93.5452C107.345 93.8518 107.626 94.1305 107.937 94.3815C111.025 96.8811 114.142 99.3437 117.287 101.769C118.722 102.877 119.892 104.028 119.898 105.614C119.913 109.009 119.916 112.377 119.907 115.718C119.907 115.747 119.913 115.776 119.926 115.802C119.939 115.829 119.957 115.852 119.981 115.87C120.004 115.888 120.031 115.901 120.06 115.907C120.089 115.914 120.119 115.913 120.148 115.906C127.496 114.014 134.902 112.329 142.182 110.314C144.172 109.765 146.496 108.922 147.69 109.787C149.066 110.78 148.536 111.866 147.851 113.027C144.021 119.476 140.407 126.031 136.562 132.49C134.379 136.316 132.834 138.919 131.927 140.297C131.036 141.653 129.715 142.179 127.962 141.874C125.4 140.627 125.425 138.418 126.69 136.23C128.897 132.413 130.853 128.873 133.254 124.747C134.257 123.025 135.337 121.34 136.155 119.516C136.164 119.495 136.167 119.472 136.163 119.449C136.16 119.427 136.151 119.405 136.136 119.387C136.121 119.37 136.102 119.356 136.08 119.348C136.059 119.341 136.035 119.339 136.013 119.344C133.085 120.037 130.163 120.729 127.246 121.421C122.506 122.544 117.25 124.115 112.754 125.127C111.575 125.392 110.125 125.49 108.403 125.42C106.996 125.115 106.077 124.899 105.647 124.772C101.708 123.595 98.8078 121.243 96.948 117.714C96.3031 116.492 95.9204 114.727 95.4143 113.632C94.0689 110.709 90.8934 108.836 87.897 107.666C87.8044 107.632 87.7581 107.663 87.7581 107.762L87.7489 129.382C87.7489 129.412 87.7548 129.442 87.7664 129.469C87.778 129.497 87.795 129.522 87.8163 129.543C87.8377 129.563 87.8629 129.58 87.8906 129.59C87.9182 129.601 87.9477 129.606 87.9772 129.604C92.6277 129.438 97.2659 130.107 101.543 131.903C102.607 132.35 103.674 132.802 104.746 133.261C109.289 135.697 113.169 138.591 116.386 141.942C117.46 143.059 118.211 143.812 118.639 144.201L122.052 148.318C122.116 148.394 122.196 148.455 122.286 148.497C122.376 148.54 122.474 148.561 122.574 148.561L164.348 148.546L172.699 148.518L184.379 148.592C184.488 148.592 184.595 148.565 184.691 148.513C184.787 148.462 184.868 148.387 184.928 148.296C192.165 137.174 196.534 124.244 197.164 110.956C197.204 110.098 197.448 109.679 196.451 109.302C194.97 108.742 193.483 108.228 191.992 107.759L168.326 99.9856L154.103 95.0296C154.065 95.0166 154.025 95.0112 153.985 95.0138C153.946 95.0164 153.907 95.027 153.871 95.0448C153.835 95.0626 153.804 95.0874 153.778 95.1176C153.752 95.1478 153.732 95.183 153.72 95.2209C153.426 96.1385 152.952 96.9891 152.297 97.773C150.658 99.7336 148.65 100.2 146.274 99.1709C144.262 98.2986 142.251 97.4243 140.241 96.5479C138.195 95.656 136.698 94.1285 136.784 91.8727C136.811 91.1341 137.146 90.1219 137.79 88.8361C138.712 86.9907 139.65 85.1535 140.605 83.3246C141.475 81.6562 142.23 80.574 142.87 80.0782C145.394 78.1186 149.11 80.1214 152.171 81.4545C154.988 82.6797 157.158 84.4078 156.377 87.7807C156.364 87.8367 156.373 87.8953 156.4 87.9453C156.427 87.9953 156.472 88.0334 156.525 88.0523L168.036 92.0671L184.437 97.5014L196.84 101.671C196.875 101.683 196.913 101.686 196.95 101.679C196.987 101.673 197.022 101.657 197.051 101.634C197.08 101.611 197.103 101.58 197.117 101.545C197.132 101.511 197.137 101.473 197.133 101.436L196.658 96.8935C194.806 81.6459 188.295 66.8735 177.744 55.653L174.004 52.0672C173.98 52.045 173.952 52.0282 173.922 52.0178C173.891 52.0074 173.858 52.0037 173.826 52.0069C173.794 52.0101 173.762 52.0202 173.734 52.0364C173.705 52.0527 173.681 52.0747 173.661 52.1011L159.941 71.3296C158.932 72.8201 158.025 74.971 156.263 75.6838C153.427 76.8318 151.282 74.5174 151.291 71.8079L168.122 47.5123C168.183 47.4245 168.214 47.3192 168.212 47.2116C168.209 47.1041 168.172 46.9998 168.107 46.9136C167.975 46.7429 167.796 46.569 167.57 46.3921C151.634 33.9558 131.421 27.608 111.208 30.41C104.925 31.2803 98.8068 32.8088 92.853 34.9957C92.781 35.0225 92.7265 35.0698 92.6894 35.1377C92.6586 35.1953 92.6133 35.2231 92.5537 35.221ZM95.9698 73.1256C95.9473 73.1283 95.9265 73.1387 95.9107 73.155C95.895 73.1713 95.8853 73.1925 95.8834 73.2151C95.6303 76.6929 95.9235 80.0072 98.4077 82.621C104.546 89.0768 115.609 85.0342 115.214 75.7672C115.062 72.2862 112.924 69.2003 109.992 67.4506C109.949 67.4259 109.911 67.432 109.878 67.4691C106.215 71.6721 101.281 72.5485 95.9698 73.1256ZM149.603 89.5952C149.603 88.9389 149.343 88.3093 148.879 87.8452C148.414 87.3811 147.785 87.1203 147.128 87.1203C146.472 87.1203 145.843 87.3811 145.378 87.8452C144.914 88.3093 144.654 88.9389 144.654 89.5952C144.654 90.2516 144.914 90.8811 145.378 91.3453C145.843 91.8094 146.472 92.0702 147.128 92.0702C147.785 92.0702 148.414 91.8094 148.879 91.3453C149.343 90.8811 149.603 90.2516 149.603 89.5952ZM102.614 111.292C103.206 112.761 103.472 114.712 104.715 115.742C106.814 117.486 109.616 118.51 112.476 118.023C112.511 118.017 112.542 117.999 112.564 117.972C112.586 117.946 112.598 117.912 112.597 117.878L112.547 108.37C112.546 108.177 112.502 107.986 112.417 107.812C112.332 107.639 112.209 107.487 112.057 107.367L99.7316 97.6927C99.6328 97.6125 99.533 97.6115 99.4322 97.6897L93.4609 102.207C93.4349 102.227 93.4144 102.253 93.4013 102.283C93.3882 102.313 93.383 102.346 93.386 102.378C93.3891 102.411 93.4005 102.442 93.419 102.469C93.4375 102.495 93.4626 102.517 93.4918 102.531C97.6208 104.599 100.824 106.858 102.614 111.292Z" fill="#213E58"/>
<path d="M151.291 71.8077C149.899 69.0983 148.879 67.2786 148.233 66.3487C139.38 53.6223 124.78 46.142 109.202 46.8579C106.034 47.004 102.894 47.3887 99.781 48.0121C96.6241 48.6416 93.6091 46.4537 94.1306 43.1147C94.3898 41.4545 95.6366 40.2386 95.4113 38.4673C95.2169 36.9089 93.9918 35.764 92.5537 35.2209C92.6134 35.2229 92.6586 35.1951 92.6895 35.1375C92.7265 35.0697 92.781 35.0223 92.853 34.9956C98.8068 32.8087 104.925 31.2801 111.208 30.4099C131.421 27.6079 151.634 33.9556 167.57 46.392C167.796 46.5689 167.975 46.7427 168.107 46.9135C168.172 46.9996 168.209 47.1039 168.212 47.2115C168.215 47.319 168.183 47.4243 168.122 47.5122L151.291 71.8077ZM124.064 41.0564C124.064 40.4065 123.806 39.7833 123.347 39.3238C122.887 38.8643 122.264 38.6061 121.614 38.6061C121.292 38.6061 120.974 38.6695 120.676 38.7927C120.379 38.9158 120.109 39.0963 119.881 39.3238C119.654 39.5513 119.473 39.8214 119.35 40.1187C119.227 40.416 119.164 40.7346 119.164 41.0564C119.164 41.3781 119.227 41.6968 119.35 41.994C119.473 42.2913 119.654 42.5614 119.881 42.789C120.109 43.0165 120.379 43.197 120.676 43.3201C120.974 43.4432 121.292 43.5066 121.614 43.5066C122.264 43.5066 122.887 43.2485 123.347 42.789C123.806 42.3294 124.064 41.7062 124.064 41.0564ZM143.648 48.5983C143.808 48.3012 143.905 47.9746 143.935 47.6373C143.965 47.3 143.927 46.9585 143.824 46.6323C143.72 46.3061 143.552 46.0017 143.331 45.7364C143.109 45.471 142.837 45.25 142.531 45.0859C141.913 44.7544 141.192 44.6749 140.528 44.8649C139.863 45.0549 139.309 45.4987 138.987 46.0989C138.828 46.396 138.73 46.7226 138.7 47.0599C138.67 47.3972 138.708 47.7387 138.812 48.0649C138.915 48.3911 139.083 48.6955 139.305 48.9608C139.527 49.2262 139.798 49.4472 140.104 49.6113C140.723 49.9428 141.443 50.0223 142.108 49.8323C142.773 49.6423 143.327 49.1985 143.648 48.5983Z" fill="#F64B40"/>
<path d="M92.5534 35.2209C93.9914 35.7641 95.2165 36.909 95.4109 38.4674C95.6362 40.2387 94.3895 41.4545 94.1303 43.1148C93.6088 46.4538 96.6237 48.6417 99.7806 48.0122C102.893 47.3888 106.034 47.0041 109.202 46.858C124.78 46.1421 139.379 53.6224 148.233 66.3488C148.879 67.2787 149.898 69.0984 151.291 71.8078C151.282 74.5173 153.427 76.8317 156.263 75.6838C158.025 74.9709 158.932 72.82 159.941 71.3295L162.962 76.5478C165.594 81.6273 166.934 86.4815 168.035 92.067L156.525 88.0522C156.471 88.0333 156.427 87.9953 156.4 87.9452C156.372 87.8952 156.364 87.8366 156.377 87.7806C157.157 84.4077 154.988 82.6796 152.171 81.4545C149.109 80.1213 145.394 78.1186 142.87 80.0781C142.23 80.5739 141.475 81.6561 140.604 83.3245C139.65 85.1535 138.712 86.9906 137.79 88.836C137.146 90.1218 136.811 91.134 136.784 91.8726C136.698 94.1284 138.194 95.6559 140.24 96.5478C142.25 97.4242 144.261 98.2985 146.273 99.1708C148.65 100.199 150.657 99.7335 152.297 97.7729C152.951 96.9891 153.426 96.1384 153.72 95.2208C153.732 95.1829 153.752 95.1478 153.778 95.1175C153.803 95.0873 153.835 95.0625 153.871 95.0447C153.906 95.0269 153.945 95.0164 153.985 95.0138C154.025 95.0111 154.065 95.0165 154.102 95.0295L168.325 99.9855C168.268 100.09 168.241 100.192 168.245 100.291C168.458 105.395 167.464 111.018 166.101 115.927C165.979 116.366 165.892 116.682 165.838 116.878C162.808 116.808 158.819 116.817 153.871 116.906C152.436 116.933 152.127 117.193 151.47 118.424C149.213 122.644 146.182 126.172 142.376 129.009C140.956 130.07 138.54 130.743 137.364 132.067C137.099 132.363 136.831 132.504 136.562 132.49C140.407 126.031 144.021 119.476 147.85 113.027C148.535 111.866 149.066 110.78 147.69 109.786C146.496 108.922 144.172 109.765 142.181 110.314C134.902 112.329 127.495 114.014 120.148 115.906C120.119 115.913 120.089 115.913 120.06 115.907C120.031 115.901 120.003 115.888 119.98 115.87C119.957 115.852 119.938 115.829 119.926 115.802C119.913 115.776 119.907 115.747 119.907 115.718C119.915 112.377 119.912 109.009 119.898 105.614C119.892 104.028 118.722 102.877 117.287 101.769C114.142 99.3436 111.025 96.8811 107.937 94.3815C107.626 94.1305 107.344 93.8517 107.091 93.5452C106.999 93.4361 107.024 93.3795 107.168 93.3754C107.886 93.359 108.586 93.2643 109.267 93.0915C121.327 90.0334 126.823 75.727 119.327 65.5588C112.896 56.8349 100.5 55.9368 92.9082 63.6177C92.3867 64.1454 91.7603 64.9663 91.1678 65.6236C91.0978 65.7018 91.0114 65.7542 90.9086 65.781C86.5512 66.929 82.6969 68.0234 79.3456 69.0644C77.4384 69.6569 76.1979 71.3418 76.562 73.3662C77.0157 75.8813 78.9536 76.412 81.2681 75.8411C81.4718 75.7918 81.5736 75.871 81.5736 76.0788L81.5952 81.3866C81.5963 81.5223 81.5672 81.6565 81.51 81.7793C81.4529 81.9021 81.3692 82.0104 81.265 82.0963C79.864 83.2628 79.8732 85.5217 80.0399 87.0184C80.5768 91.7954 86.5049 91.2585 87.1993 86.6913C87.4729 84.887 87.0388 83.2515 85.897 81.7847C85.789 81.6446 85.7304 81.4731 85.7304 81.2971L85.7643 74.6808C85.7643 74.6315 85.789 74.6016 85.8384 74.5913L88.267 74.0636C88.3205 74.0513 88.3452 74.0719 88.3411 74.1254C87.8926 81.223 90.4909 86.8116 96.1361 90.8913C96.1518 90.9025 96.1645 90.9173 96.1732 90.9345C96.182 90.9517 96.1865 90.9708 96.1865 90.9903C96.1865 91.0098 96.182 91.0291 96.1732 91.0468C96.1645 91.0644 96.1518 91.0798 96.1361 91.0918C91.5895 94.5234 86.9956 97.9025 82.3543 101.229C80.4935 102.562 80.1572 103.087 80.4009 105.704L80.3577 106.537C80.3536 106.632 80.3053 106.689 80.2127 106.71C79.7004 106.83 79.2807 106.926 78.753 106.929C68.1168 107.017 57.4796 107.015 46.8414 106.923C46.8167 106.923 46.4752 106.903 45.8168 106.864C45.4013 106.841 45.0073 106.867 44.6349 106.941C44.5753 105.137 44.6288 103.076 44.7954 100.757C46.9093 71.4375 64.9466 47.0555 91.7788 35.4277C91.8858 35.3824 92.144 35.3135 92.5534 35.2209ZM88.628 51.0086C89.2946 49.5798 88.9058 47.9875 87.6683 47C86.4298 46.0166 84.9897 45.9579 83.348 46.8241C82.5128 47.2664 81.0449 48.2446 78.9444 49.7588C70.3716 55.943 63.203 64.6423 59.3425 74.5327C58.3118 77.1763 57.4128 80.0216 56.6454 83.0684C56.1866 84.8912 56.5826 86.3261 57.8335 87.3733C59.1882 88.5089 61.1694 88.1633 62.3482 87.0277C63.129 86.2747 63.5239 85.0866 63.777 84.0127C66.7148 71.4992 74.4883 60.8867 85.2705 53.9865C86.687 53.0793 87.8782 52.6195 88.628 51.0086ZM60.4108 94.9655C60.0706 94.6613 59.6721 94.4292 59.2379 94.2823C58.8037 94.1354 58.3424 94.0766 57.8803 94.1094C57.4182 94.1421 56.9644 94.2657 56.5447 94.473C56.125 94.6804 55.7478 94.9675 55.4344 95.318C55.1211 95.6684 54.8778 96.0753 54.7185 96.5155C54.5592 96.9557 54.487 97.4204 54.506 97.8833C54.525 98.3462 54.6348 98.798 54.8292 99.2131C55.0235 99.6283 55.2986 99.9985 55.6388 100.303C55.979 100.607 56.3775 100.839 56.8117 100.986C57.2459 101.133 57.7072 101.191 58.1693 101.159C58.6314 101.126 59.0853 101.002 59.5049 100.795C59.9246 100.588 60.3018 100.301 60.6152 99.9501C60.9285 99.5996 61.1718 99.1927 61.3311 98.7526C61.4904 98.3124 61.5626 97.8476 61.5436 97.3848C61.5246 96.9219 61.4148 96.47 61.2205 96.0549C61.0261 95.6398 60.751 95.2696 60.4108 94.9655Z" fill="white"/>
<path d="M121.614 43.5067C122.967 43.5067 124.064 42.4097 124.064 41.0564C124.064 39.7032 122.967 38.6062 121.614 38.6062C120.261 38.6062 119.164 39.7032 119.164 41.0564C119.164 42.4097 120.261 43.5067 121.614 43.5067Z" fill="#DA453D"/>
<path d="M140.104 49.6114C141.392 50.3016 142.978 49.8481 143.648 48.5984C144.318 47.3487 143.818 45.7761 142.531 45.0859C141.244 44.3957 139.657 44.8492 138.987 46.0989C138.317 47.3486 138.817 48.9212 140.104 49.6114Z" fill="#DA453D"/>
<path d="M88.6283 51.0085C87.8784 52.6194 86.6872 53.0792 85.2708 53.9864C74.4885 60.8866 66.715 71.4991 63.7772 84.0126C63.5242 85.0865 63.1292 86.2746 62.3484 87.0276C61.1696 88.1632 59.1884 88.5088 57.8337 87.3732C56.5829 86.326 56.1868 84.8911 56.6456 83.0683C57.413 80.0215 58.312 77.1762 59.3427 74.5326C63.2032 64.6422 70.3719 55.9429 78.9446 49.7587C81.0451 48.2445 82.513 47.2663 83.3482 46.824C84.9899 45.9579 86.43 46.0165 87.6685 46.9999C88.906 47.9874 89.2948 49.5797 88.6283 51.0085Z" fill="#213E58"/>
<path d="M177.744 55.6528C177.624 55.7989 177.575 56.0046 177.596 56.27C177.603 56.3757 177.574 56.4806 177.512 56.5663C175.426 59.3827 173.371 62.2207 171.347 65.0804C169.569 67.5892 167.261 70.4838 165.341 73.2797C164.789 74.0789 163.357 75.2825 163.459 76.2237C163.469 76.3224 163.431 76.3975 163.345 76.4489C163.244 76.5107 163.116 76.5436 162.962 76.5477L159.941 71.3294L173.661 52.1009C173.68 52.0745 173.705 52.0525 173.733 52.0362C173.762 52.02 173.793 52.0099 173.826 52.0067C173.858 52.0035 173.891 52.0072 173.921 52.0176C173.952 52.028 173.98 52.0448 174.004 52.067L177.744 55.6528Z" fill="#DA453D"/>
<path d="M177.744 55.6528C188.295 66.8733 194.806 81.6457 196.658 96.8933C196.51 97.2348 196.315 97.3212 196.075 97.1525C193.746 95.5273 191.147 94.7496 188.279 94.8195C186.74 94.8566 185.135 96.273 184.437 97.5012L168.036 92.0669C166.934 86.4813 165.595 81.6272 162.962 76.5477C163.117 76.5436 163.244 76.5107 163.345 76.449C163.431 76.3975 163.47 76.3224 163.459 76.2237C163.357 75.2825 164.789 74.079 165.342 73.2797C167.261 70.4838 169.569 67.5892 171.347 65.0804C173.371 62.2207 175.426 59.3827 177.513 56.5663C177.574 56.4807 177.604 56.3757 177.596 56.27C177.575 56.0046 177.625 55.7989 177.744 55.6528ZM178.539 74.45C178.233 73.6182 177.609 72.942 176.804 72.5702C176 72.1984 175.08 72.1615 174.248 72.4675L173.97 72.5698C173.558 72.7214 173.18 72.9526 172.858 73.2502C172.535 73.5478 172.275 73.9061 172.091 74.3045C171.906 74.7029 171.803 75.1337 171.785 75.5722C171.767 76.0107 171.836 76.4485 171.988 76.8603L174.752 84.3729C175.058 85.2048 175.682 85.881 176.487 86.2527C177.291 86.6245 178.211 86.6615 179.042 86.3554L179.321 86.2531C179.732 86.1016 180.11 85.8704 180.433 85.5727C180.756 85.2751 181.016 84.9168 181.2 84.5184C181.384 84.12 181.488 83.6893 181.506 83.2507C181.523 82.8122 181.455 82.3745 181.303 81.9626L178.539 74.45Z" fill="#F64B40"/>
<path d="M95.9695 73.1254C101.28 72.5483 106.215 71.6719 109.878 67.4689C109.911 67.4318 109.949 67.4257 109.992 67.4504C112.924 69.2001 115.062 72.286 115.213 75.767C115.608 85.034 104.545 89.0766 98.4073 82.6208C95.9232 80.007 95.63 76.6927 95.8831 73.2149C95.885 73.1923 95.8947 73.1711 95.9104 73.1548C95.9261 73.1385 95.947 73.1281 95.9695 73.1254Z" fill="white"/>
<path d="M174.248 72.4676L173.97 72.5699C172.238 73.2072 171.35 75.1281 171.988 76.8604L174.752 84.373C175.389 86.1052 177.31 86.9928 179.042 86.3554L179.32 86.2532C181.052 85.6158 181.94 83.6949 181.303 81.9626L178.539 74.4501C177.901 72.7178 175.98 71.8302 174.248 72.4676Z" fill="#213E58"/>
<path d="M147.128 92.07C148.495 92.07 149.603 90.9619 149.603 89.595C149.603 88.2282 148.495 87.1201 147.128 87.1201C145.761 87.1201 144.653 88.2282 144.653 89.595C144.653 90.9619 145.761 92.07 147.128 92.07Z" fill="#84B0D2"/>
<path d="M60.6155 99.9501C61.9333 98.4763 61.8418 96.2446 60.4111 94.9655C58.9805 93.6864 56.7525 93.8442 55.4348 95.318C54.1171 96.7918 54.2086 99.0235 55.6392 100.303C57.0698 101.582 59.2978 101.424 60.6155 99.9501Z" fill="#C3E4F6"/>
<path d="M196.658 96.8935L197.133 101.436C197.137 101.473 197.132 101.511 197.117 101.546C197.103 101.58 197.08 101.611 197.051 101.634C197.022 101.657 196.987 101.673 196.95 101.679C196.913 101.686 196.875 101.683 196.84 101.671L184.438 97.5014C185.135 96.2732 186.74 94.8568 188.279 94.8198C191.147 94.7498 193.746 95.5275 196.075 97.1527C196.315 97.3214 196.51 97.235 196.658 96.8935Z" fill="#DA453D"/>
<path d="M102.614 111.292C100.824 106.858 97.6208 104.599 93.4919 102.531C93.4626 102.517 93.4376 102.495 93.4191 102.468C93.4006 102.441 93.3892 102.41 93.3861 102.378C93.383 102.345 93.3883 102.313 93.4014 102.283C93.4145 102.253 93.435 102.227 93.461 102.207L99.4323 97.6895C99.5331 97.6113 99.6329 97.6123 99.7316 97.6925L112.057 107.367C112.209 107.486 112.332 107.639 112.417 107.812C112.502 107.986 112.547 108.177 112.548 108.37L112.597 117.878C112.598 117.912 112.586 117.945 112.564 117.972C112.542 117.999 112.511 118.017 112.477 118.023C109.616 118.51 106.814 117.486 104.715 115.742C103.472 114.711 103.206 112.761 102.614 111.292Z" fill="#F64B40"/>
<path d="M168.326 99.9856L191.992 107.759C191.597 107.704 191.24 107.723 190.921 107.818C190.818 107.849 190.763 107.917 190.757 108.024C190.562 110.861 190.371 112.732 190.186 113.635C189.46 117.21 188.599 120.753 187.603 124.263C187.048 126.219 186.215 128.117 185.456 130.043C182.811 136.767 178.784 142.065 173.726 147.04C173.551 147.211 173.391 147.458 173.245 147.781C173.101 148.091 172.918 148.337 172.698 148.518L164.348 148.546C165.604 145.602 164.076 143.269 161.685 141.849C160.53 141.164 159.179 140.436 158.272 139.578C155.755 137.198 155.659 134.524 157.981 131.558C161.656 126.861 164.275 121.968 165.838 116.878C165.892 116.683 165.979 116.366 166.101 115.928C167.465 111.018 168.458 105.395 168.245 100.291C168.241 100.192 168.268 100.091 168.326 99.9856ZM179.922 122.772C180.546 121.242 181.37 119.041 180.626 117.477C179.595 115.304 176.438 114.604 174.855 116.69C174.467 117.2 174.199 117.671 174.053 118.103C172.823 121.74 171.543 124.75 170.214 127.133C168.914 129.468 167.404 131.657 165.684 133.699C162.907 137.001 167.039 141.461 170.208 138.844C170.955 138.229 171.62 137.534 172.205 136.761C174.379 133.883 176.275 130.836 177.892 127.62C178.639 126.133 179.259 124.395 179.922 122.772Z" fill="#F64B40"/>
<path d="M80.4013 105.704C80.3736 115.801 80.3118 125.408 80.4322 136.011C80.4384 136.594 80.5309 136.863 80.9414 137.31C83.9697 140.596 87.1585 144.196 90.5078 148.111C90.7547 148.401 90.6868 148.547 90.3041 148.549L57.4327 148.58C57.3195 148.58 57.2311 148.534 57.1673 148.441C49.94 137.862 45.9592 125.13 44.8513 112.326C44.6682 110.205 44.5962 108.41 44.6353 106.941C45.0077 106.867 45.4017 106.842 45.8172 106.864C46.4756 106.903 46.8171 106.923 46.8418 106.923C57.48 107.015 68.1172 107.017 78.7534 106.929C79.2811 106.926 79.7008 106.83 80.2131 106.71C80.3057 106.689 80.354 106.632 80.3581 106.537L80.4013 105.704ZM60.2656 124.797C58.7257 125.858 59.5743 128.12 60.3736 129.299C60.6236 129.663 61.3426 130.249 61.4475 130.688C61.8826 132.552 62.8362 135.141 65.3111 134.033C67.4929 133.061 66.2585 130.502 65.1877 129.185C64.5489 128.398 64.3082 126.827 63.7712 125.685C63.0985 124.253 61.5216 123.929 60.2656 124.797Z" fill="#C3E4F6"/>
<path d="M108.403 125.42L104.746 133.261C103.674 132.802 102.606 132.35 101.543 131.903C97.2656 130.107 92.6274 129.438 87.9769 129.604C87.9474 129.605 87.9179 129.601 87.8902 129.59C87.8626 129.579 87.8373 129.563 87.816 129.543C87.7946 129.522 87.7777 129.497 87.7661 129.469C87.7545 129.442 87.7485 129.412 87.7485 129.382L87.7578 107.762C87.7578 107.663 87.8041 107.631 87.8967 107.666C90.8931 108.836 94.0685 110.709 95.414 113.631C95.9201 114.727 96.3028 116.492 96.9477 117.714C98.8075 121.242 101.707 123.595 105.647 124.772C106.077 124.899 106.996 125.115 108.403 125.42Z" fill="#537B9F"/>
<path d="M191.992 107.759C193.483 108.228 194.969 108.742 196.451 109.302C197.447 109.679 197.204 110.098 197.164 110.956C196.534 124.244 192.164 137.174 184.928 148.296C184.868 148.387 184.786 148.462 184.691 148.513C184.595 148.565 184.487 148.592 184.379 148.592L172.698 148.518C172.918 148.337 173.1 148.091 173.244 147.781C173.391 147.458 173.551 147.211 173.726 147.04C178.784 142.065 182.811 136.767 185.455 130.043C186.215 128.117 187.048 126.219 187.603 124.263C188.599 120.753 189.46 117.21 190.186 113.635C190.371 112.732 190.562 110.861 190.757 108.024C190.763 107.917 190.818 107.849 190.921 107.818C191.24 107.723 191.597 107.704 191.992 107.759Z" fill="#DA453D"/>
<path d="M179.923 122.772C179.259 124.395 178.639 126.133 177.892 127.62C176.275 130.836 174.379 133.882 172.205 136.761C171.621 137.534 170.955 138.228 170.208 138.844C167.039 141.46 162.907 137.001 165.684 133.699C167.404 131.656 168.914 129.467 170.214 127.132C171.543 124.75 172.823 121.74 174.053 118.103C174.199 117.671 174.467 117.2 174.856 116.69C176.439 114.604 179.596 115.304 180.626 117.477C181.37 119.041 180.546 121.241 179.923 122.772Z" fill="#213E58"/>
<path d="M165.839 116.878C164.275 121.968 161.656 126.861 157.982 131.558C155.659 134.524 155.756 137.198 158.272 139.578C159.179 140.436 160.531 141.164 161.685 141.849C164.077 143.269 165.604 145.602 164.348 148.546L122.574 148.561C122.474 148.561 122.376 148.539 122.286 148.497C122.196 148.455 122.116 148.394 122.052 148.317L118.639 144.201C121.906 143.668 125.014 142.892 127.962 141.874C129.715 142.178 131.036 141.653 131.927 140.297C132.834 138.919 134.379 136.316 136.562 132.49C136.832 132.504 137.099 132.363 137.365 132.067C138.54 130.743 140.957 130.07 142.376 129.009C146.182 126.172 149.214 122.643 151.47 118.424C152.128 117.193 152.436 116.933 153.871 116.906C158.819 116.817 162.808 116.808 165.839 116.878Z" fill="#C3E4F6"/>
<path d="M127.962 141.874C125.013 142.892 121.906 143.668 118.639 144.201C118.211 143.812 117.46 143.059 116.386 141.942C113.169 138.591 109.289 135.697 104.746 133.261L108.403 125.42C110.125 125.49 111.575 125.392 112.754 125.127C117.25 124.114 122.506 122.544 127.246 121.42C130.163 120.729 133.085 120.037 136.013 119.344C136.035 119.339 136.059 119.341 136.08 119.348C136.102 119.356 136.121 119.37 136.136 119.387C136.15 119.405 136.16 119.426 136.163 119.449C136.167 119.472 136.164 119.495 136.155 119.516C135.337 121.34 134.257 123.025 133.254 124.747C130.853 128.873 128.897 132.413 126.69 136.23C125.425 138.418 125.4 140.627 127.962 141.874Z" fill="#84B0D2"/>
<path d="M60.3733 129.299C59.5741 128.12 58.7254 125.858 60.2653 124.796C61.5213 123.929 63.0982 124.253 63.7709 125.685C64.3079 126.827 64.5486 128.398 65.1874 129.185C66.2582 130.502 67.4926 133.061 65.3108 134.033C62.8359 135.14 61.8823 132.551 61.4472 130.687C61.3423 130.249 60.6233 129.663 60.3733 129.299Z" fill="#84B0D2"/>
<path d="M155.016 178.211C154.913 177.645 154.86 177.131 154.855 176.668C154.818 173.461 154.802 170.25 154.806 167.037C154.809 163.266 152.979 162.143 149.455 162.146C132.513 162.15 115.572 162.148 98.6327 162.139C96.9848 162.137 95.7011 162.775 94.7815 164.053C94.3494 164.654 94.0038 165.574 93.5471 166.321C93.4051 166.378 93.2488 166.408 93.078 166.41C89.1692 166.458 85.2603 166.48 81.3515 166.478C80.7302 166.478 80.1922 166.442 79.7375 166.37C79.6378 166.354 79.5462 166.304 79.4783 166.228C77.5187 164.071 76.7071 163.096 73.5656 163.065C72.3025 163.055 71.0403 163.031 69.7792 162.994C67.8011 162.936 66.4958 161.868 65.3354 160.359C64.5208 159.297 64.244 158.011 64.5053 156.501C64.5223 156.4 64.576 156.307 64.6565 156.242C64.737 156.176 64.8389 156.141 64.9435 156.143C65.1966 156.15 65.4969 156.152 65.8446 156.15C99.7591 156.09 133.674 156.062 167.588 156.066C168.8 156.066 169.661 156.206 170.171 156.486C172.723 157.89 172.01 161.596 169.557 162.615C168.1 163.22 166.406 162.825 164.841 163.198C159.426 164.497 160.379 170.734 160.342 174.826C160.332 175.791 159.898 176.479 159.04 176.89C157.775 177.499 156.433 177.939 155.016 178.211Z" fill="#84B0D2"/>
<path d="M143.903 174.048C143.395 173.894 142.732 173.818 141.913 173.82C137.867 173.829 133.76 174.014 129.724 173.81C127.684 173.705 126.607 172.357 126.52 170.394C126.504 169.981 126.482 169.55 126.456 169.101C127.342 167.396 128.842 166.542 130.955 166.54C135.277 166.538 139.599 166.512 143.919 166.463C146.199 166.435 148.606 167.922 148.464 170.416C148.323 172.949 146.489 173.783 144.227 173.959C144.022 173.975 143.914 174.005 143.903 174.048Z" fill="#213E58"/>
<path d="M126.456 169.101C126.482 169.55 126.504 169.981 126.52 170.394C126.607 172.357 127.684 173.706 129.724 173.81C133.76 174.014 137.867 173.829 141.913 173.82C142.732 173.818 143.395 173.894 143.903 174.048C143.447 175.208 142.922 176.001 142.66 177.294C142.316 178.988 142.124 180.708 142.083 182.454C140.796 182.331 139.599 182.251 138.256 182.346C131.523 182.828 124.246 183.078 117.46 182.596C110.525 182.102 103.922 180.371 97.6514 177.402C95.9788 176.609 94.0408 175.585 92.9793 174.033C92.9634 174.01 92.9541 173.983 92.9524 173.955C92.9508 173.927 92.9568 173.9 92.9699 173.875C92.983 173.851 93.0026 173.83 93.0266 173.816C93.0505 173.802 93.078 173.795 93.1058 173.795C98.1215 173.857 103.124 173.876 108.113 173.854C109.975 173.843 111.239 173.669 111.905 173.329C113.273 172.634 113.905 171.291 113.8 169.302L126.456 169.101Z" fill="#84B0D2"/>
</svg>
